<svg width="44" height="32" viewBox="0 0 44 32" fill="none" xmlns="http://www.w3.org/2000/svg">
<path fill-rule="evenodd" clip-rule="evenodd" d="M4.36364 0H39.2727C40.43 0 41.5399 0.459739 42.3583 1.27808C43.1766 2.09642 43.6364 3.20633 43.6364 4.36364V18.9091C43.6364 20.0664 43.1766 21.1763 42.3583 21.9946C41.5399 22.813 40.43 23.2727 39.2727 23.2727H36.3636V17.4545C36.3636 16.2972 35.9039 15.1873 35.0856 14.369C34.2672 13.5506 33.1573 13.0909 32 13.0909H11.6364C10.4791 13.0909 9.36915 13.5506 8.55081 14.369C7.73247 15.1873 7.27273 16.2972 7.27273 17.4545V23.2727H4.36364C3.20633 23.2727 2.09642 22.813 1.27808 21.9946C0.459739 21.1763 0 20.0664 0 18.9091V4.36364C0 3.20633 0.459739 2.09642 1.27808 1.27808C2.09642 0.459739 3.20633 0 4.36364 0ZM32 7.27273H37.8182C38.204 7.27273 38.5739 7.11948 38.8467 6.8467C39.1195 6.57392 39.2727 6.20395 39.2727 5.81818C39.2727 5.43241 39.1195 5.06244 38.8467 4.78966C38.5739 4.51688 38.204 4.36364 37.8182 4.36364H32C31.6142 4.36364 31.2443 4.51688 30.9715 4.78966C30.6987 5.06244 30.5455 5.43241 30.5455 5.81818C30.5455 6.20395 30.6987 6.57392 30.9715 6.8467C31.2443 7.11948 31.6142 7.27273 32 7.27273ZM34.6059 27.3868C35.6971 28.4779 37.1769 29.0909 38.72 29.0909C39.1058 29.0909 39.4757 29.2442 39.7485 29.5169C40.0213 29.7897 40.1746 30.1597 40.1746 30.5455C40.1746 30.9312 40.0213 31.3012 39.7485 31.574C39.4757 31.8468 39.1058 32 38.72 32C36.4054 32 34.1856 31.0805 32.5489 29.4438C30.9122 27.8072 29.9927 25.5873 29.9927 23.2727H26.9527V26.9091C26.9527 27.2949 26.7995 27.6648 26.5267 27.9376C26.2539 28.2104 25.884 28.3636 25.4982 28.3636C25.1124 28.3636 24.7425 28.2104 24.4697 27.9376C24.1969 27.6648 24.0436 27.2949 24.0436 26.9091V23.2727H19.68V26.9091C19.68 27.2949 19.5268 27.6648 19.254 27.9376C18.9812 28.2104 18.6112 28.3636 18.2255 28.3636C17.8397 28.3636 17.4697 28.2104 17.1969 27.9376C16.9242 27.6648 16.7709 27.2949 16.7709 26.9091V23.2727H13.6436C13.6436 25.5873 12.7242 27.8072 11.0875 29.4438C9.4508 31.0805 7.23099 32 4.91637 32C4.5306 32 4.16063 31.8468 3.88785 31.574C3.61507 31.3012 3.46183 30.9312 3.46183 30.5455C3.46183 30.1597 3.61507 29.7897 3.88785 29.5169C4.16063 29.2442 4.5306 29.0909 4.91637 29.0909C6.45945 29.0909 7.93933 28.4779 9.03045 27.3868C10.1216 26.2957 10.7346 24.8158 10.7346 23.2727H10.1818V17.4545C10.1818 17.0688 10.3351 16.6988 10.6079 16.426C10.8806 16.1532 11.2506 16 11.6364 16H32C32.3858 16 32.7557 16.1532 33.0285 16.426C33.3013 16.6988 33.4546 17.0688 33.4546 17.4545V23.2727H32.9018C32.9018 24.8158 33.5148 26.2957 34.6059 27.3868Z" fill="#225999"/>
</svg>
