<svg width="40" height="40" viewBox="0 0 40 40" fill="none" xmlns="http://www.w3.org/2000/svg">
<path d="M21.0896 36.3807C22.8744 34.595 24.0692 32.3053 24.513 29.82C24.9568 27.3347 24.6284 24.7731 23.5719 22.4801L24.7604 21.2918C26.4412 23.1805 28.0089 25.1668 29.4555 27.2404C29.836 27.7747 30.4122 28.1371 31.0587 28.2485C31.7052 28.3599 32.3696 28.2114 32.9071 27.8353C33.4445 27.4592 33.8116 26.886 33.9283 26.2405C34.045 25.595 33.9018 24.9296 33.53 24.3891C28.6328 17.4292 22.5701 11.3673 15.6092 6.47079C15.0687 6.09904 14.4031 5.95591 13.7576 6.07257C13.112 6.18924 12.5387 6.55625 12.1625 7.09365C11.7864 7.63106 11.6378 8.29531 11.7493 8.94172C11.8607 9.58813 12.2231 10.1643 12.7576 10.5448C14.8314 11.9911 16.8181 13.5587 18.7072 15.2391L17.5176 16.4286C15.467 15.485 13.197 15.1212 10.9542 15.3768C8.71138 15.6324 6.58147 16.4976 4.79583 17.8783C3.01019 19.2591 1.63709 21.1027 0.825666 23.2089C0.0142451 25.3151 -0.20447 27.6033 0.193279 29.825C0.591027 32.0467 1.59003 34.117 3.08178 35.811C4.57353 37.5049 6.50099 38.7578 8.65479 39.4335C10.8086 40.1092 13.1064 40.1819 15.2986 39.6437C17.4909 39.1055 19.4937 37.977 21.0896 36.3807ZM7.07455 22.3672C7.92542 21.5161 8.96998 20.8839 10.1187 20.5248C11.2675 20.1658 12.4862 20.0905 13.6704 20.3055C13.3457 20.7007 13.1802 21.2028 13.2062 21.7136C13.2322 22.2244 13.4478 22.7071 13.8109 23.0674L16.931 26.187C17.2923 26.5504 17.7764 26.7657 18.2883 26.7909C18.8002 26.816 19.3031 26.649 19.6983 26.3228C19.9257 27.5861 19.8234 28.8867 19.4012 30.0989C18.9791 31.3111 18.2514 32.3939 17.2885 33.2428C16.3255 34.0917 15.1599 34.6779 13.9041 34.9448C12.6484 35.2117 11.3451 35.1503 10.1201 34.7664C8.89503 34.3826 7.78973 33.6893 6.91094 32.7536C6.03215 31.8178 5.40959 30.6713 5.10341 29.4248C4.79723 28.1782 4.81778 26.8738 5.16307 25.6375C5.50837 24.4012 6.16673 23.2748 7.07455 22.3672ZM30.3598 1.15492C29.2878 1.93147 28.4993 3.03735 28.1147 4.30383C27.2443 6.92998 25.6233 9.24352 23.452 10.9584C25.4083 12.7255 27.2737 14.5907 29.0411 16.5467L29.3443 16.1803C31.0992 14.1435 33.3818 12.63 35.9412 11.8062C36.7997 11.5067 37.5789 11.0161 38.2201 10.3714C39.3007 9.29104 39.9346 7.84317 39.9952 6.31638C40.0559 4.78959 39.5389 3.29601 38.5473 2.13334C37.5557 0.970667 36.1624 0.224283 34.645 0.0429493C33.1276 -0.138384 31.5975 0.258651 30.3598 1.15492Z" fill="#225999"/>
</svg>
