<svg width="37" height="40" viewBox="0 0 37 40" fill="none" xmlns="http://www.w3.org/2000/svg">
<path d="M22.2794 33.3333C22.2794 32.9797 22.4196 32.6406 22.6692 32.3905C22.9188 32.1405 23.2573 32 23.6103 32H24.8081C25.161 32 25.4996 32.1405 25.7491 32.3905C25.9987 32.6406 26.1389 32.9797 26.1389 33.3333C26.1389 33.687 25.9987 34.0261 25.7491 34.2761C25.4996 34.5262 25.161 34.6667 24.8081 34.6667H23.6103C23.2573 34.6667 22.9188 34.5262 22.6692 34.2761C22.4196 34.0261 22.2794 33.687 22.2794 33.3333ZM7.50678 33.3333C7.50678 33.687 7.647 34.0261 7.89659 34.2761C8.14617 34.5262 8.48468 34.6667 8.83765 34.6667H19.8572C20.2102 34.6667 20.5487 34.5262 20.7983 34.2761C21.0479 34.0261 21.1881 33.687 21.1881 33.3333C21.1881 32.9797 21.0479 32.6406 20.7983 32.3905C20.5487 32.1405 20.2102 32 19.8572 32H8.83765C8.48468 32 8.14617 32.1405 7.89659 32.3905C7.647 32.6406 7.50678 32.9797 7.50678 33.3333ZM36.8791 27.5467L34.8029 32.4533C34.701 32.6943 34.5306 32.9 34.3129 33.0446C34.0951 33.1892 33.8397 33.2665 33.5785 33.2667C33.4039 33.2712 33.2307 33.2346 33.0728 33.16L31.1962 32.3733L30.8502 34.4267C30.5919 35.9833 29.7908 37.3977 28.5894 38.4183C27.388 39.4388 25.8642 39.9993 24.289 40H9.35669C7.78157 39.9993 6.25777 39.4388 5.05636 38.4183C3.85495 37.3977 3.05383 35.9833 2.79551 34.4267L0.0539209 17.9867C-0.0409629 17.4141 -0.0103541 16.8278 0.143623 16.2683C0.297601 15.7088 0.571259 15.1896 0.945603 14.7467C1.31154 14.3138 1.7652 13.9638 2.27647 13.72C2.49772 12.491 3.14243 11.3788 4.09822 10.5772C5.05402 9.77554 6.26028 9.33536 7.50678 9.33333C8.09207 8.54886 8.8427 7.90321 9.70528 7.44231C10.5679 6.98142 11.5212 6.71659 12.4975 6.66667C12.8741 6.24485 13.3358 5.90789 13.8519 5.67804C14.3681 5.4482 14.9271 5.33071 15.492 5.33333V2.66667H12.8303C12.4773 2.66667 12.1388 2.52619 11.8892 2.27614C11.6396 2.02609 11.4994 1.68696 11.4994 1.33333C11.4994 0.979711 11.6396 0.640573 11.8892 0.390524C12.1388 0.140476 12.4773 0 12.8303 0H20.8155C21.1684 0 21.507 0.140476 21.7565 0.390524C22.0061 0.640573 22.1463 0.979711 22.1463 1.33333C22.1463 1.68696 22.0061 2.02609 21.7565 2.27614C21.507 2.52619 21.1684 2.66667 20.8155 2.66667H18.1537V5.33333C18.7292 5.33686 19.2971 5.46499 19.8186 5.70893C20.34 5.95288 20.8027 6.30687 21.1748 6.74667C21.4959 6.69299 21.8208 6.66624 22.1463 6.66667C23.1794 6.66667 24.1983 6.90763 25.1223 7.37049C26.0462 7.83334 26.85 8.50536 27.4698 9.33333C28.5287 9.33333 29.5443 9.75476 30.293 10.5049C31.0418 11.2551 31.4624 12.2725 31.4624 13.3333C31.4697 13.471 31.4697 13.609 31.4624 13.7467C31.9702 13.9844 32.4233 14.3249 32.7933 14.7467C33.1676 15.1896 33.4413 15.7088 33.5953 16.2683C33.7492 16.8278 33.7799 17.4141 33.685 17.9867L32.6336 24.2667L36.2669 25.8C36.5748 25.9551 36.8106 26.2238 36.9248 26.5495C37.039 26.8753 37.0226 27.2328 36.8791 27.5467ZM14.1611 9.33333V13.3333H15.492V12C15.492 11.6464 15.6322 11.3072 15.8818 11.0572C16.1314 10.8071 16.4699 10.6667 16.8229 10.6667C17.1758 10.6667 17.5143 10.8071 17.7639 11.0572C18.0135 11.3072 18.1537 11.6464 18.1537 12V13.3333H19.4846V9.33333C19.4846 8.97971 19.3444 8.64057 19.0948 8.39052C18.8452 8.14048 18.5067 8 18.1537 8H15.492C15.139 8 14.8005 8.14048 14.5509 8.39052C14.3013 8.64057 14.1611 8.97971 14.1611 9.33333ZM28.6809 31.3067L15.9046 25.9067C14.9286 25.4947 14.156 24.7112 13.7566 23.7285C13.3573 22.7458 13.364 21.6444 13.7752 20.6667C14.1864 19.6889 14.9684 18.9148 15.9493 18.5148C16.9302 18.1147 18.0295 18.1214 19.0055 18.5333L30.0251 23.2L30.9567 17.5467C30.9878 17.3546 30.9765 17.158 30.9237 16.9707C30.8709 16.7835 30.7778 16.61 30.651 16.4626C30.5242 16.3152 30.3667 16.1975 30.1896 16.1175C30.0125 16.0376 29.82 15.9975 29.6258 16H3.99329C3.79907 15.9975 3.60665 16.0376 3.42954 16.1175C3.25244 16.1975 3.09494 16.3152 2.96812 16.4626C2.84129 16.61 2.7482 16.7835 2.69539 16.9707C2.64258 17.158 2.63133 17.3546 2.66242 17.5467L3.26131 21.1067L3.46094 22.3467H3.51418L5.45725 33.9733C5.61316 34.9174 6.10172 35.7742 6.83427 36.3882C7.56682 37.0022 8.49481 37.3328 9.44985 37.32H24.289C25.2441 37.3328 26.1721 37.0022 26.9046 36.3882C27.6372 35.7742 28.1257 34.9174 28.2816 33.9733L28.6809 31.3067Z" fill="#225999"/>
</svg>
