<svg width="26" height="30" viewBox="0 0 26 30" fill="none" xmlns="http://www.w3.org/2000/svg">
<rect x="7.5" y="12" width="17.5" height="11.5" rx="5" fill="#F8991D"/>
<rect x="6" y="6.5" width="8.5" height="5" rx="2.5" fill="#0662BA"/>
<path d="M19.2 0H6C4.4087 0 2.88258 0.632141 1.75736 1.75736C0.632141 2.88258 0 4.4087 0 6V28.8C0 29.1183 0.126428 29.4235 0.351472 29.6485C0.576516 29.8736 0.88174 30 1.2 30H4.8C5.068 29.9998 5.32821 29.9099 5.53917 29.7446C5.75012 29.5793 5.89968 29.3482 5.964 29.088L6.936 25.2H18.264L19.236 29.088C19.3003 29.3482 19.4499 29.5793 19.6608 29.7446C19.8718 29.9099 20.132 29.9998 20.4 30H24C24.3183 30 24.6235 29.8736 24.8485 29.6485C25.0736 29.4235 25.2 29.1183 25.2 28.8V6C25.2 4.4087 24.5679 2.88258 23.4426 1.75736C22.3174 0.632141 20.7913 0 19.2 0ZM3.864 27.6H2.4V25.2H4.464L3.864 27.6ZM22.8 27.6H21.336L20.736 25.2H22.8V27.6ZM22.8 22.8H2.4V20.4H22.8V22.8ZM22.8 18H2.4V16.8C2.40285 15.8461 2.78305 14.9321 3.45756 14.2576C4.13208 13.583 5.0461 13.2028 6 13.2H19.2C20.1539 13.2028 21.0679 13.583 21.7424 14.2576C22.417 14.9321 22.7971 15.8461 22.8 16.8V18ZM7.2 9C7.2 8.52261 7.38964 8.06477 7.72721 7.72721C8.06477 7.38964 8.52261 7.2 9 7.2H16.2C16.6774 7.2 17.1352 7.38964 17.4728 7.72721C17.8104 8.06477 18 8.52261 18 9C18 9.47739 17.8104 9.93523 17.4728 10.2728C17.1352 10.6104 16.6774 10.8 16.2 10.8H9C8.52261 10.8 8.06477 10.6104 7.72721 10.2728C7.38964 9.93523 7.2 9.47739 7.2 9ZM22.8 12.036C21.9679 11.4019 20.9823 11.0002 19.944 10.872C20.2367 10.2909 20.3927 9.6506 20.4 9C20.4 7.88609 19.9575 6.8178 19.1698 6.03015C18.3822 5.2425 17.3139 4.8 16.2 4.8H9C7.88609 4.8 6.8178 5.2425 6.03015 6.03015C5.2425 6.8178 4.8 7.88609 4.8 9C4.80729 9.6506 4.96327 10.2909 5.256 10.872C4.21771 11.0002 3.23211 11.4019 2.4 12.036V6C2.40285 5.0461 2.78305 4.13208 3.45756 3.45756C4.13208 2.78305 5.0461 2.40285 6 2.4H19.2C20.1539 2.40285 21.0679 2.78305 21.7424 3.45756C22.417 4.13208 22.7971 5.0461 22.8 6V12.036Z" fill="#200E32"/>
</svg>
