<svg width="15" height="11" viewBox="0 0 15 11" fill="none" xmlns="http://www.w3.org/2000/svg">
<path d="M4.09091 5.45455C5.22273 5.45455 6.13636 4.54091 6.13636 3.40909C6.13636 2.27727 5.22273 1.36364 4.09091 1.36364C2.95909 1.36364 2.04545 2.27727 2.04545 3.40909C2.04545 4.54091 2.95909 5.45455 4.09091 5.45455ZM12.2727 1.36364H8.18182C7.43182 1.36364 6.81818 1.97727 6.81818 2.72727V6.13636H1.36364V0.681818C1.36364 0.306818 1.05682 0 0.681818 0C0.306818 0 0 0.306818 0 0.681818V9.54545C0 9.92045 0.306818 10.2273 0.681818 10.2273C1.05682 10.2273 1.36364 9.92045 1.36364 9.54545V8.18182H13.6364V9.54545C13.6364 9.92045 13.9432 10.2273 14.3182 10.2273C14.6932 10.2273 15 9.92045 15 9.54545V4.09091C15 2.58409 13.7795 1.36364 12.2727 1.36364Z" fill="black"/>
</svg>
