<svg width="14" height="14" viewBox="0 0 14 14" fill="none" xmlns="http://www.w3.org/2000/svg">
<path d="M4.49232 4.85825C4.50575 4.93138 4.54426 4.99754 4.60121 5.04535C4.65815 5.09315 4.72998 5.11962 4.80434 5.12019H5.12791C5.17266 5.12108 5.21708 5.11234 5.25815 5.09455C5.29922 5.07677 5.33599 5.05035 5.36595 5.0171C5.39591 4.98385 5.41837 4.94454 5.4318 4.90185C5.44523 4.85915 5.44931 4.81406 5.44378 4.76965C5.37204 4.21936 5.12168 3.70783 4.73115 3.31357C4.45255 3.02976 4.27288 2.66367 4.21882 2.26966C4.20765 2.19413 4.1695 2.1252 4.11143 2.07563C4.05336 2.02606 3.9793 1.9992 3.90295 2.00002H3.58323C3.53867 1.99975 3.49455 2.00891 3.45378 2.02691C3.413 2.04491 3.3765 2.07133 3.34667 2.10443C3.31683 2.13754 3.29434 2.17659 3.28068 2.21901C3.26701 2.26143 3.26247 2.30626 3.26736 2.35056C3.34074 2.97128 3.61855 3.54995 4.05704 3.99538C4.28916 4.23015 4.44145 4.53205 4.49232 4.85825ZM6.67644 4.85825C6.68987 4.93138 6.72838 4.99754 6.78532 5.04535C6.84227 5.09315 6.9141 5.11962 6.98845 5.12019H7.31203C7.35678 5.12108 7.4012 5.11234 7.44227 5.09455C7.48334 5.07677 7.5201 5.05035 7.55007 5.0171C7.58003 4.98385 7.60249 4.94454 7.61592 4.90185C7.62934 4.85915 7.63343 4.81406 7.6279 4.76965C7.55616 4.21936 7.3058 3.70783 6.91526 3.31357C6.63667 3.02976 6.457 2.66367 6.40294 2.26966C6.39177 2.19413 6.35362 2.1252 6.29555 2.07563C6.23748 2.02606 6.16342 1.9992 6.08707 2.00002H5.76735C5.722 2.00091 5.67739 2.01168 5.63663 2.03158C5.59587 2.05147 5.55994 2.08002 5.53134 2.11522C5.50274 2.15042 5.48215 2.19144 5.47102 2.23541C5.45989 2.27938 5.45848 2.32525 5.46689 2.36982C5.53905 2.98133 5.80967 3.55234 6.2373 3.99538C6.47083 4.22963 6.6245 4.53158 6.67644 4.85825ZM9.81587 5.74422H2.63948C2.5561 5.74163 2.47306 5.75588 2.39532 5.78613C2.31759 5.81637 2.24675 5.86199 2.18705 5.92025C2.12735 5.97851 2.08002 6.04822 2.04789 6.12519C2.01575 6.20217 1.99948 6.28484 2.00004 6.36825V10.1125C1.9985 10.3608 2.04628 10.6069 2.14059 10.8366C2.2349 11.0663 2.37388 11.275 2.54945 11.4505C2.72503 11.6261 2.93372 11.7651 3.16342 11.8594C3.39311 11.9537 3.63925 12.0015 3.88755 12H7.63175C8.12795 11.9989 8.60353 11.8014 8.9544 11.4505C9.30527 11.0996 9.50283 10.6241 9.50385 10.1279H9.81587C10.3951 10.1279 10.9507 9.89775 11.3603 9.48815C11.7699 9.07855 12 8.52301 12 7.94375C12 7.36448 11.7699 6.80894 11.3603 6.39934C10.9507 5.98974 10.3951 5.75963 9.81587 5.75963V5.74422ZM9.81587 8.86439H9.50385V6.99229H9.81587C10.0641 6.99229 10.3022 7.09091 10.4778 7.26645C10.6533 7.44199 10.7519 7.68008 10.7519 7.92834C10.7519 8.17659 10.6533 8.41468 10.4778 8.59022C10.3022 8.76577 10.0641 8.86439 9.81587 8.86439Z" fill="#019947"/>
</svg>
