<svg width="24" height="24" viewBox="0 0 24 24" fill="none" xmlns="http://www.w3.org/2000/svg">
<rect width="24" height="24" rx="12" fill="#F8991D"/>
<path d="M6.06201 10.4424H17.9447" stroke="white" stroke-linecap="round" stroke-linejoin="round"/>
<path d="M14.9614 12.7861H14.9661" stroke="white" stroke-linecap="round" stroke-linejoin="round"/>
<path d="M12.0034 12.7861H12.0081" stroke="white" stroke-linecap="round" stroke-linejoin="round"/>
<path d="M9.03857 12.7861H9.04326" stroke="white" stroke-linecap="round" stroke-linejoin="round"/>
<path d="M14.9614 15.1177H14.9661" stroke="white" stroke-linecap="round" stroke-linejoin="round"/>
<path d="M12.0034 15.1177H12.0081" stroke="white" stroke-linecap="round" stroke-linejoin="round"/>
<path d="M9.03857 15.1177H9.04326" stroke="white" stroke-linecap="round" stroke-linejoin="round"/>
<path d="M14.696 6V7.97462" stroke="white" stroke-linecap="round" stroke-linejoin="round"/>
<path d="M9.31055 6V7.97462" stroke="white" stroke-linecap="round" stroke-linejoin="round"/>
<path fill-rule="evenodd" clip-rule="evenodd" d="M14.8255 6.94751H9.18064C7.22285 6.94751 6 7.92908 6 9.73336V15.1632C6 16.9958 7.22285 18.0001 9.18064 18.0001H14.8193C16.7833 18.0001 18 17.0129 18 15.2086V9.73336C18.0061 7.92908 16.7895 6.94751 14.8255 6.94751Z" stroke="white" stroke-linecap="round" stroke-linejoin="round"/>
</svg>
