<svg width="8" height="15" viewBox="0 0 8 15" fill="none" xmlns="http://www.w3.org/2000/svg">
<path d="M6.39635 1.10862C6.01844 0.725872 5.56218 0.429443 5.05889 0.239685C4.55559 0.049926 4.0172 -0.0286682 3.48066 0.0092984C2.52208 0.0930825 1.63062 0.536229 0.985126 1.24984C0.33963 1.96346 -0.0121613 2.89475 0.000321155 3.85691V4.00682C0.000321155 4.27187 0.105613 4.52607 0.293033 4.71349C0.480453 4.90091 0.734649 5.0062 0.999701 5.0062C1.26475 5.0062 1.51895 4.90091 1.70637 4.71349C1.89379 4.52607 1.99908 4.27187 1.99908 4.00682V3.82943C1.99191 3.36552 2.16451 2.91683 2.48074 2.57732C2.79696 2.23781 3.23228 2.03382 3.69553 2.00806C3.92958 2.00103 4.16265 2.04108 4.38093 2.12582C4.59922 2.21056 4.79826 2.33827 4.96626 2.50138C5.13426 2.66448 5.26779 2.85967 5.35895 3.07535C5.4501 3.29103 5.49702 3.52282 5.49691 3.75697C5.49671 3.99011 5.44286 4.22008 5.33951 4.42906C5.23888 4.63912 5.0899 4.82235 4.90478 4.96373L0.485021 8.37911C0.332627 8.49702 0.209576 8.64859 0.125491 8.82196C0.0414058 8.99534 -0.00143424 9.18581 0.000321155 9.37849V14.0006C0.000321155 14.2657 0.105613 14.5199 0.293033 14.7073C0.480453 14.8947 0.734649 15 0.999701 15H6.49629C6.76134 15 7.01554 14.8947 7.20296 14.7073C7.39038 14.5199 7.49567 14.2657 7.49567 14.0006V3.75697C7.49633 3.26482 7.39953 2.77741 7.21085 2.32286C7.02217 1.86832 6.74535 1.45563 6.39635 1.10862ZM5.9966 13.5009H1.49939C1.43313 13.5009 1.36958 13.4746 1.32272 13.4278C1.27587 13.3809 1.24955 13.3173 1.24955 13.2511C1.24955 13.1848 1.27587 13.1213 1.32272 13.0744C1.36958 13.0276 1.43313 13.0012 1.49939 13.0012H5.9966C6.06286 13.0012 6.12641 13.0276 6.17327 13.0744C6.22012 13.1213 6.24645 13.1848 6.24645 13.2511C6.24645 13.3173 6.22012 13.3809 6.17327 13.4278C6.12641 13.4746 6.06286 13.5009 5.9966 13.5009ZM6.24645 11.752C6.24645 11.8183 6.22012 11.8818 6.17327 11.9287C6.12641 11.9755 6.06286 12.0019 5.9966 12.0019H1.49939C1.43313 12.0019 1.36958 11.9755 1.32272 11.9287C1.27587 11.8818 1.24955 11.8183 1.24955 11.752V9.75325C1.24955 9.68699 1.27587 9.62344 1.32272 9.57659C1.36958 9.52973 1.43313 9.50341 1.49939 9.50341H5.9966C6.06286 9.50341 6.12641 9.52973 6.17327 9.57659C6.22012 9.62344 6.24645 9.68699 6.24645 9.75325V11.752Z" fill="black"/>
</svg>
