<svg width="24" height="24" viewBox="0 0 24 24" fill="none" xmlns="http://www.w3.org/2000/svg">
<rect width="24" height="24" rx="12" fill="#FF0020"/>
<path d="M9.96622 10.0115L9.965 10.0125L9.96384 10.0137L9.96622 10.0115ZM15.3662 9.91035C15.3285 9.87397 15.2866 9.84214 15.2414 9.81551C15.1775 9.7779 15.1066 9.75379 15.033 9.74469C14.9594 9.73558 14.8847 9.74167 14.8135 9.76257C14.7424 9.78348 14.6763 9.81876 14.6193 9.86622C14.5623 9.91369 14.5157 9.97235 14.4823 10.0386C14.2954 10.4067 14.0377 10.7344 13.7239 11.0027C13.7719 10.7324 13.7961 10.4583 13.7962 10.1837C13.7972 9.34833 13.5768 8.5276 13.1575 7.80509C12.7382 7.08258 12.1349 6.48409 11.409 6.07056C11.3291 6.02523 11.2389 6.00096 11.147 6.00003C11.0551 5.99909 10.9645 6.02152 10.8836 6.06521C10.8027 6.1089 10.7343 6.17242 10.6847 6.2498C10.6351 6.32719 10.606 6.4159 10.6001 6.50763C10.5697 7.022 10.4352 7.52486 10.2048 7.98573C9.97437 8.4466 9.65276 8.85589 9.25948 9.1888L9.13445 9.29052C8.7232 9.56723 8.35918 9.90836 8.05637 10.3008C7.58566 10.8938 7.25958 11.5883 7.104 12.3293C6.94843 13.0702 6.96762 13.8372 7.16006 14.5695C7.35251 15.3017 7.71291 15.979 8.21269 16.5477C8.71247 17.1165 9.33789 17.5609 10.0393 17.8458C10.1217 17.8795 10.2111 17.8924 10.2996 17.8833C10.3881 17.8743 10.473 17.8436 10.5468 17.7939C10.6207 17.7443 10.6812 17.6773 10.723 17.5987C10.7648 17.5202 10.7866 17.4326 10.7866 17.3436C10.7862 17.2861 10.7771 17.2289 10.7596 17.1741C10.6382 16.7179 10.6033 16.243 10.6565 15.7739C11.1698 16.7421 11.9938 17.5095 12.996 17.9528C13.1183 18.0076 13.2566 18.0149 13.3841 17.9735C14.1759 17.7179 14.8892 17.2642 15.4562 16.6553C16.0232 16.0464 16.4251 15.3027 16.6237 14.4947C16.8224 13.6867 16.8111 12.8414 16.591 12.039C16.3709 11.2367 15.9493 10.5039 15.3662 9.91035ZM13.2479 16.871C12.775 16.6314 12.3579 16.2949 12.0236 15.8834C11.6893 15.472 11.4454 14.9948 11.3076 14.4828C11.2655 14.3105 11.233 14.1359 11.2101 13.9599C11.1946 13.8479 11.1445 13.7435 11.0668 13.6613C10.989 13.5792 10.8875 13.5233 10.7765 13.5017C10.7423 13.4949 10.7075 13.4916 10.6727 13.4916C10.5773 13.4916 10.4836 13.5167 10.4011 13.5644C10.3186 13.6121 10.25 13.6808 10.2025 13.7634C9.75237 14.5398 9.52601 15.4256 9.54848 16.3227C9.15259 16.0149 8.82174 15.6316 8.57508 15.195C8.32843 14.7584 8.17088 14.2772 8.11158 13.7792C8.05227 13.2813 8.09239 12.7765 8.2296 12.2942C8.3668 11.8119 8.59838 11.3616 8.9109 10.9694C9.14819 10.6612 9.43445 10.394 9.75827 10.1784C9.77229 10.1694 9.78573 10.1595 9.79853 10.1488C9.79853 10.1488 9.95948 10.0156 9.96498 10.0125C10.7379 9.35883 11.2876 8.4803 11.5375 7.49937C12.1286 8.04578 12.5227 8.77206 12.6587 9.56544C12.7947 10.3588 12.6649 11.1749 12.2895 11.887C12.2399 11.982 12.2196 12.0895 12.2311 12.1961C12.2425 12.3027 12.2853 12.4035 12.354 12.4857C12.4227 12.568 12.5142 12.6281 12.617 12.6585C12.7198 12.6888 12.8293 12.688 12.9316 12.6562C13.7626 12.3957 14.4938 11.8869 15.0269 11.1983C15.3472 11.6715 15.5567 12.2109 15.6396 12.7763C15.7225 13.3417 15.6768 13.9185 15.5058 14.4638C15.3348 15.0091 15.043 15.5087 14.652 15.9255C14.2611 16.3423 13.7811 16.6655 13.2479 16.8711L13.2479 16.871Z" fill="white"/>
</svg>
