<svg width="20" height="20" viewBox="0 0 20 20" fill="none" xmlns="http://www.w3.org/2000/svg">
<path d="M0 0H17C18.6569 0 20 1.34315 20 3V20H3C1.34315 20 0 18.6569 0 17V0Z" fill="#019947"/>
<path d="M5.94839 9.88052C5.73143 9.65521 5.37968 9.65521 5.16272 9.88052C4.94576 10.1058 4.94576 10.4711 5.16272 10.6964L7.9405 13.581C8.15745 13.8063 8.50921 13.8063 8.72617 13.581L14.8373 7.23487C15.0542 7.00957 15.0542 6.64428 14.8373 6.41898C14.6203 6.19367 14.2686 6.19367 14.0516 6.41898L8.33333 12.3572L5.94839 9.88052Z" fill="white"/>
</svg>
