<svg width="14" height="10" viewBox="0 0 14 10" fill="none" xmlns="http://www.w3.org/2000/svg">
<path d="M13.8379 7.5884C13.866 7.61021 13.8824 7.64463 13.8824 7.68083C13.8824 7.71703 13.866 7.75145 13.8379 7.77326L11.0458 9.97581C11.005 10.0078 10.9486 10.0081 10.9078 9.97644C10.8669 9.94459 10.8518 9.88901 10.8705 9.84004L11.3358 8.63198C9.2211 8.55038 8.0223 7.7757 7.18376 6.87673C7.49578 6.51154 7.75471 6.14134 7.99097 5.80359C8.10814 5.63568 8.22061 5.47555 8.33341 5.32234C8.96941 6.08959 9.74357 6.63787 11.3292 6.7124L10.8705 5.52145C10.8519 5.47249 10.8671 5.41691 10.9079 5.38506C10.9282 5.36959 10.9523 5.36149 10.9764 5.36149C11.0008 5.36149 11.0255 5.36959 11.046 5.38558L13.8379 7.5884ZM2.83654 4.61426C2.85709 4.6305 2.88158 4.6384 2.90609 4.6384C2.9301 4.6384 2.95451 4.63034 2.97468 4.61473C3.01564 4.58312 3.03091 4.52738 3.01194 4.47842L2.55691 3.29611C4.13542 3.39937 4.91172 3.95834 5.54928 4.72947C5.66056 4.57839 5.77152 4.42068 5.88696 4.25536C6.12442 3.9157 6.38508 3.54315 6.69923 3.17519C5.85925 2.27237 4.65958 1.48862 2.54396 1.3751L3.01191 0.159911C3.03072 0.110947 3.01546 0.0553668 2.97466 0.0235168C2.93378 -0.00808719 2.87742 -0.0077591 2.83676 0.0242549L0.0443414 2.22669C0.0163083 2.24851 0 2.28293 0 2.31912C0 2.3554 0.0164681 2.38982 0.0443414 2.41164L2.83654 4.61426ZM7.69832 5.58852C8.53231 4.39552 9.20551 3.43494 11.3254 3.29627L10.8705 4.47858C10.8518 4.52754 10.8669 4.58312 10.9077 4.61489C10.9282 4.63048 10.9521 4.63857 10.9764 4.63857C11.0006 4.63857 11.0252 4.6305 11.0458 4.6144L13.8379 2.41177C13.866 2.38996 13.8824 2.35554 13.8824 2.31926C13.8824 2.28306 13.866 2.24864 13.8379 2.22683L11.0458 0.0242274C11.005 -0.00778664 10.9486 -0.00811451 10.9078 0.0234894C10.8669 0.0553394 10.8518 0.11092 10.8705 0.159884L11.3386 1.37508C8.22784 1.54226 7.09646 3.15794 6.17891 4.47043C5.34751 5.66009 4.68023 6.61253 2.55334 6.7124L3.01191 5.52145C3.03072 5.47249 3.01546 5.41691 2.97466 5.38506C2.95451 5.36959 2.93024 5.36149 2.90607 5.36149C2.88171 5.36149 2.85709 5.36959 2.83652 5.38558L0.0443414 7.5884C0.0163083 7.61021 0 7.64463 0 7.68083C0 7.71703 0.0164681 7.75145 0.0443414 7.77326L2.83654 9.97581C2.87742 10.0078 2.93381 10.0081 2.97445 9.97644C3.01548 9.94459 3.03075 9.88901 3.01178 9.84004L2.54657 8.63198C5.65348 8.51224 6.78405 6.89677 7.69832 5.58852Z" fill="#F8991D"/>
</svg>
