<svg width="10" height="9" viewBox="0 0 10 9" fill="none" xmlns="http://www.w3.org/2000/svg">
<path d="M9.41253 5.47893C8.56347 5.46815 7.87675 5.46284 7.41487 5.46065L6.77362 0.884707C6.7619 0.801895 6.68534 0.743457 6.60253 0.755645C6.51972 0.767207 6.4619 0.84377 6.47347 0.926739L6.61159 1.9119C6.53628 1.87299 6.45222 1.84877 6.3619 1.8483L5.60456 1.84424C5.47503 1.84346 5.3494 1.80549 5.24159 1.73408L4.54112 1.27127C4.03753 0.83252 3.44112 0.874551 3.02815 0.986895C2.94393 1.00986 2.86815 1.04564 2.80096 1.09096V1.09064C2.8019 0.96252 2.75253 0.841895 2.66221 0.750801C2.57174 0.66002 2.45143 0.609863 2.32315 0.609863H1.87893C1.74174 0.609863 1.62034 0.638301 1.51815 0.693926C1.29971 0.813145 1.18674 1.02893 1.22362 1.25705C1.24502 1.39127 1.3144 1.50611 1.4144 1.58408L1.1669 1.85299C1.09331 1.93315 1.03799 2.03049 1.00721 2.13518C0.987681 2.20127 0.977837 2.26955 0.977837 2.3383V3.90768C0.977837 4.23877 1.24737 4.51362 1.58378 4.52018L2.25878 4.51002C2.32768 4.50893 2.39487 4.49393 2.45737 4.46893C2.43878 4.59955 2.40721 4.71096 2.35471 4.8494L1.64284 6.55159C1.55753 6.75549 1.57971 6.98706 1.70221 7.17128C1.72753 7.2094 1.75737 7.24362 1.7894 7.27518L1.70128 7.27659C1.64987 7.27753 1.60237 7.30424 1.57518 7.34799L1.02315 8.23409L0.0826803 8.71378C0.00799271 8.75175 -0.0213823 8.84284 0.0165865 8.91753C0.043149 8.96971 0.096274 8.99987 0.15143 8.99987C0.174399 8.99987 0.198149 8.99456 0.220024 8.98331L1.19799 8.48471C1.22252 8.47221 1.24331 8.45315 1.25768 8.42971L1.78831 7.57799L3.30596 7.55346L5.30362 7.59581C5.35784 7.59393 5.39612 7.57549 5.4255 7.53846L6.49222 6.19518C6.71034 5.9208 7.03565 5.76362 7.38581 5.76362C7.38769 5.76362 7.38956 5.76362 7.39144 5.76362C7.85269 5.76596 8.54753 5.77112 9.40831 5.78205C9.40894 5.78205 9.40972 5.78205 9.41034 5.78205C9.49316 5.78205 9.56081 5.71549 9.56191 5.63252C9.563 5.54877 9.49612 5.48002 9.41253 5.47893ZM2.25393 4.20674L1.5844 4.2169C1.4169 4.21362 1.28081 4.07487 1.28081 3.90752V2.33815C1.28081 2.29846 1.28659 2.25893 1.29768 2.22096C1.31565 2.16065 1.34753 2.10424 1.39003 2.05799L1.73253 1.68565H2.0294C2.11299 1.68565 2.18081 1.61783 2.18081 1.53408C2.18081 1.45033 2.11299 1.38252 2.0294 1.38252H1.68643C1.58362 1.36002 1.53362 1.27596 1.52284 1.20846C1.51518 1.16065 1.51346 1.04127 1.66315 0.959551C1.72049 0.928301 1.79299 0.912364 1.87893 0.912364H2.32315C2.37018 0.912364 2.41424 0.930645 2.44721 0.964082C2.48018 0.997207 2.49831 1.04127 2.49784 1.08814L2.48112 3.98471C2.48409 4.05705 2.45315 4.10565 2.42659 4.13377C2.38393 4.17908 2.32112 4.20565 2.25393 4.20674ZM1.92221 6.66815L2.63596 4.96127C2.75174 4.65565 2.78346 4.45268 2.78346 4.01784C2.78346 4.01534 2.78221 4.0133 2.78206 4.0108C2.78221 4.00033 2.7844 3.98987 2.78393 3.9794L2.79753 1.6758C2.79753 1.6758 2.79753 1.6758 2.79753 1.67565C2.79753 1.48033 2.91346 1.3319 3.108 1.27893C3.4505 1.18518 3.94456 1.14861 4.34831 1.50518C4.35362 1.50986 4.35925 1.51424 4.36518 1.51799L5.07425 1.98643C5.23143 2.09033 5.41409 2.14596 5.60268 2.1469L6.36003 2.15096C6.49893 2.15174 6.6119 2.26533 6.6119 2.4044C6.6119 2.54408 6.49815 2.65768 6.35862 2.65768H5.54159C5.43737 2.65768 5.33315 2.63268 5.24003 2.58533L4.35581 2.1358C4.30893 2.11205 4.25268 2.11424 4.208 2.14158C4.16315 2.16924 4.13565 2.21815 4.13565 2.2708V3.81393C4.13565 3.84908 4.14784 3.88299 4.17018 3.91002L4.93206 4.83721C5.11753 5.05205 5.19315 5.33502 5.13831 5.62002L4.94518 6.90831C4.91956 7.04284 4.81065 7.14362 4.67472 7.1594C4.57753 7.1694 4.48347 7.1369 4.41565 7.06737C4.34753 6.99768 4.31612 6.90252 4.32987 6.80393L4.41831 6.09643C4.47112 5.71846 4.34878 5.34502 4.08237 5.07174L3.76768 4.74893C3.73253 4.71299 3.68175 4.69596 3.63206 4.70565C3.58253 4.71455 3.54065 4.74784 3.52034 4.79377L2.5769 6.94815C2.52018 7.07768 2.39206 7.16143 2.25065 7.16143C2.1294 7.16143 2.02128 7.10346 1.95424 7.00252C1.88721 6.90159 1.87534 6.78002 1.92221 6.66815ZM2.72643 7.25971C2.77878 7.20487 2.82315 7.1419 2.85471 7.07002L3.70784 5.12174L3.86565 5.28362C4.06581 5.48909 4.15815 5.77002 4.11815 6.0569L4.02971 6.7644C4.00378 6.94987 4.06331 7.13252 4.19081 7.26893L3.3069 7.25018L2.72643 7.25971ZM6.25519 6.00659L5.23518 7.29112L5.0694 7.28768C5.15659 7.20159 5.21925 7.08924 5.24409 6.95971L5.43722 5.67143C5.50831 5.30112 5.40784 4.92502 5.16393 4.64237L4.43878 3.76002V2.5183L5.10284 2.8558C5.23815 2.92455 5.39003 2.96112 5.54175 2.96112H6.35878C6.50534 2.96112 6.63784 2.90299 6.73737 2.81002L7.11253 5.48831C6.77644 5.55237 6.47315 5.73205 6.25519 6.00659Z" fill="#F8991D"/>
</svg>
