<svg width="12" height="10" viewBox="0 0 12 10" fill="none" xmlns="http://www.w3.org/2000/svg">
<path d="M7.50563 1.95122C8.03829 1.95122 8.4741 1.5122 8.4741 0.97561C8.4741 0.439024 8.03829 0 7.50563 0C6.97297 0 6.53716 0.439024 6.53716 0.97561C6.53716 1.5122 6.97297 1.95122 7.50563 1.95122ZM2.42117 5.12195C1.06532 5.12195 0 6.19512 0 7.56098C0 8.92683 1.06532 10 2.42117 10C3.77703 10 4.84234 8.92683 4.84234 7.56098C4.84234 6.19512 3.77703 5.12195 2.42117 5.12195ZM2.42117 9.26829C1.50113 9.26829 0.726351 8.48781 0.726351 7.56098C0.726351 6.63415 1.50113 5.85366 2.42117 5.85366C3.34122 5.85366 4.11599 6.63415 4.11599 7.56098C4.11599 8.48781 3.34122 9.26829 2.42117 9.26829ZM5.22973 4.39024L6.39189 3.21951L6.77928 3.60976C7.29257 4.12683 7.93176 4.47805 8.69685 4.59512C8.98739 4.63902 9.24887 4.40488 9.24887 4.10732C9.24887 3.86829 9.06971 3.66341 8.83727 3.62439C8.29978 3.53659 7.85912 3.27805 7.50563 2.92683L6.58559 2C6.34347 1.80488 6.10135 1.70732 5.81081 1.70732C5.52027 1.70732 5.27815 1.80488 5.13288 2L3.77703 3.36585C3.58333 3.56098 3.48649 3.80488 3.48649 4.04878C3.48649 4.34146 3.58333 4.58537 3.77703 4.73171L5.32658 6.09756V8.04878C5.32658 8.31707 5.54448 8.53659 5.81081 8.53659C6.07714 8.53659 6.29505 8.31707 6.29505 8.04878V5.90244C6.29505 5.64878 6.1982 5.40976 6.02872 5.22927L5.22973 4.39024ZM9.20045 5.12195C7.84459 5.12195 6.77928 6.19512 6.77928 7.56098C6.77928 8.92683 7.84459 10 9.20045 10C10.5563 10 11.6216 8.92683 11.6216 7.56098C11.6216 6.19512 10.5563 5.12195 9.20045 5.12195ZM9.20045 9.26829C8.28041 9.26829 7.50563 8.48781 7.50563 7.56098C7.50563 6.63415 8.28041 5.85366 9.20045 5.85366C10.1205 5.85366 10.8953 6.63415 10.8953 7.56098C10.8953 8.48781 10.1205 9.26829 9.20045 9.26829Z" fill="#F8991D"/>
</svg>
