<svg width="14" height="10" viewBox="0 0 14 10" fill="none" xmlns="http://www.w3.org/2000/svg">
<path d="M12.5 1.66667H10.8333C10.8333 1.66667 10.3517 1.66667 10 0.833333C9.82083 0.409167 9.62667 0 9.16667 0H5.83333C5.37333 0 5.17333 0.406667 5 0.833333C4.66167 1.66667 4.16667 1.66667 4.16667 1.66667H3.33333C3.33333 1.44565 3.24554 1.23369 3.08926 1.07741C2.93298 0.921131 2.72101 0.833333 2.5 0.833333H1.66667C1.44565 0.833333 1.23369 0.921131 1.07741 1.07741C0.921131 1.23369 0.833333 1.44565 0.833333 1.66667C0.61232 1.66667 0.400358 1.75446 0.244078 1.91074C0.0877974 2.06702 0 2.27899 0 2.5L0 9.16667C0 9.38768 0.0877974 9.59964 0.244078 9.75592C0.400358 9.9122 0.61232 10 0.833333 10H12.5C12.721 10 12.933 9.9122 13.0893 9.75592C13.2455 9.59964 13.3333 9.38768 13.3333 9.16667V2.5C13.3333 2.27899 13.2455 2.06702 13.0893 1.91074C12.933 1.75446 12.721 1.66667 12.5 1.66667ZM12.5 9.16667H0.833333V5.83333H4.625C4.82917 7.245 6.03167 8.33333 7.5 8.33333C9.00417 8.33333 10.2275 7.19083 10.385 5.72917H12.5V9.16667ZM5.41667 5.41667C5.41667 4.2675 6.35167 3.33333 7.5 3.33333C8.64833 3.33333 9.58333 4.2675 9.58333 5.41667C9.58333 6.565 8.64833 7.5 7.5 7.5C6.35167 7.5 5.41667 6.565 5.41667 5.41667ZM10.375 5C10.1708 3.58833 8.96833 2.5 7.5 2.5C6.03167 2.5 4.82917 3.58833 4.625 5H0.833333V2.5H4.16667C4.65333 2.5 5.36667 2.14583 5.77167 1.14667C5.84083 0.9775 5.8875 0.884167 5.91833 0.833333H9.07833C9.13417 0.925 9.20583 1.09417 9.2325 1.1575C9.77167 2.435 10.6608 2.5 10.8333 2.5H12.5V5H10.375ZM1.66667 3.75833C1.66667 3.86884 1.71057 3.97482 1.78871 4.05296C1.86685 4.1311 1.97283 4.175 2.08333 4.175C2.19384 4.175 2.29982 4.1311 2.37796 4.05296C2.4561 3.97482 2.5 3.86884 2.5 3.75833C2.5 3.64783 2.4561 3.54185 2.37796 3.46371C2.29982 3.38557 2.19384 3.34167 2.08333 3.34167C1.97283 3.34167 1.86685 3.38557 1.78871 3.46371C1.71057 3.54185 1.66667 3.64783 1.66667 3.75833Z" fill="#F8991D"/>
</svg>
