<svg width="10" height="9" viewBox="0 0 10 9" fill="none" xmlns="http://www.w3.org/2000/svg">
<path d="M5.22719 8.99927C5.15653 8.99881 5.08779 8.97629 5.03055 8.93485C4.45081 8.52463 3.79649 8.07372 3.5829 7.94489L0.375686 8.17204C0.307272 8.17954 0.238195 8.16605 0.177636 8.13334C0.117078 8.10064 0.067906 8.05028 0.0366571 7.98896C0.00643965 7.92938 -0.00549803 7.86219 0.00234333 7.79584C0.0101847 7.72949 0.0374555 7.66693 0.0807309 7.61603L2.45393 4.836C2.50678 4.77397 2.58019 4.73305 2.66074 4.72073L4.37962 4.45289C4.44519 4.44287 4.51226 4.4523 4.57252 4.48003C4.63278 4.50775 4.68359 4.55254 4.71865 4.60885C4.89155 4.89024 5.05768 5.14112 5.17973 5.33437C5.30517 5.14451 5.47129 4.89024 5.65437 4.59189C5.68897 4.53496 5.73958 4.48948 5.79988 4.46114C5.86017 4.43281 5.92748 4.42286 5.9934 4.43255L7.8784 4.70038C7.94114 4.7093 8.00013 4.73563 8.04867 4.77638C8.09721 4.81713 8.13336 4.87067 8.15301 4.93092C9.2752 8.32121 9.2752 8.38902 9.2752 8.45682C9.27486 8.52376 9.25472 8.58909 9.21732 8.6446C9.17991 8.7001 9.12691 8.7433 9.065 8.76873C9.01275 8.7904 8.9559 8.79865 8.89965 8.79272C8.8434 8.7868 8.78952 8.7669 8.74292 8.73483C8.61748 8.66363 7.83432 8.29409 7.09185 7.94828L5.39671 8.96537C5.34408 8.99113 5.28568 9.00281 5.22719 8.99927ZM3.65749 7.26005C3.77954 7.26005 3.83378 7.26005 5.24414 8.2568L6.91556 7.27361C6.96375 7.24865 7.01723 7.23561 7.07151 7.23561C7.12578 7.23561 7.17927 7.24865 7.22746 7.27361L8.38016 7.8025C8.16318 7.12444 7.83432 6.10735 7.57666 5.34115L6.11545 5.13434C5.4001 6.28365 5.34924 6.28365 5.16278 6.28365C5.09623 6.28359 5.03117 6.26396 4.9757 6.22718C4.92024 6.1904 4.87682 6.13812 4.85087 6.07684L4.65762 5.77511C4.55252 5.60898 4.41352 5.39878 4.26096 5.15807L2.88789 5.37166L1.13511 7.43635C2.38613 7.34481 3.59985 7.26005 3.65749 7.26005ZM5.14582 2.34413C4.94936 2.34413 4.7573 2.28587 4.59395 2.17672C4.43059 2.06757 4.30327 1.91243 4.22808 1.73092C4.1529 1.54941 4.13323 1.34968 4.17156 1.15698C4.20988 0.964291 4.30449 0.787292 4.44342 0.648369C4.58234 0.509446 4.75934 0.414838 4.95203 0.376509C5.14472 0.338181 5.34445 0.357852 5.52596 0.433037C5.70748 0.508222 5.86262 0.635542 5.97177 0.798899C6.08092 0.962255 6.13918 1.15431 6.13918 1.35078C6.13918 1.61423 6.03452 1.86689 5.84823 2.05319C5.66194 2.23948 5.40928 2.34413 5.14582 2.34413ZM5.14582 1.03548C5.08346 1.03548 5.0225 1.05397 4.97065 1.08862C4.9188 1.12326 4.87839 1.17251 4.85453 1.23012C4.83066 1.28773 4.82442 1.35113 4.83659 1.41229C4.84875 1.47345 4.87878 1.52963 4.92287 1.57373C4.96697 1.61782 5.02315 1.64785 5.08431 1.66002C5.14547 1.67218 5.20887 1.66594 5.26648 1.64207C5.3241 1.61821 5.37334 1.5778 5.40798 1.52595C5.44263 1.4741 5.46112 1.41314 5.46112 1.35078C5.46112 1.26716 5.4279 1.18696 5.36877 1.12783C5.30964 1.0687 5.22944 1.03548 5.14582 1.03548Z" fill="#F8991D"/>
</svg>
