<svg width="12" height="12" viewBox="0 0 12 12" fill="none" xmlns="http://www.w3.org/2000/svg">
<path fill-rule="evenodd" clip-rule="evenodd" d="M6 12C9.3138 12 12 9.3138 12 6C12 2.6862 9.3138 0 6 0C2.6862 0 0 2.6862 0 6C0 9.3138 2.6862 12 6 12ZM5.3484 6.7656C5.298 7.1016 5.5836 7.3788 5.9232 7.3788H6.2052C6.28532 7.37881 6.36243 7.34828 6.42084 7.29344C6.47925 7.2386 6.51456 7.16356 6.5196 7.0836C6.5538 6.768 6.6894 6.492 6.9252 6.2562L7.3032 5.8842C7.5984 5.5872 7.8048 5.3178 7.923 5.076C8.0412 4.8306 8.1 4.5708 8.1 4.2966C8.1 3.6936 7.9182 3.2274 7.5546 2.8986C7.191 2.5662 6.6798 2.4 6.021 2.4C5.3682 2.4 4.8528 2.574 4.473 2.9226C4.24819 3.13113 4.08381 3.39645 3.9972 3.6906C3.8868 4.053 4.2132 4.3692 4.5912 4.3692C4.9116 4.3692 5.151 4.1082 5.3736 3.8652C5.4048 3.831 5.4354 3.7968 5.466 3.7644C5.6064 3.6162 5.7912 3.5424 6.021 3.5424C6.5058 3.5424 6.7482 3.8148 6.7482 4.3596C6.7482 4.5402 6.7014 4.713 6.6084 4.8774C6.5154 5.0388 6.327 5.25 6.0444 5.511C5.7648 5.769 5.5722 6.0324 5.466 6.3C5.4138 6.4326 5.3748 6.588 5.3484 6.7656ZM5.3826 8.3322C5.2428 8.4708 5.1726 8.6484 5.1726 8.8644C5.1726 9.0774 5.241 9.2532 5.3778 9.3924C5.5176 9.5304 5.7012 9.6 5.928 9.6C6.1548 9.6 6.336 9.5304 6.4734 9.3918C6.6132 9.2532 6.6834 9.0774 6.6834 8.8644C6.6834 8.6484 6.6114 8.4708 6.4686 8.3322C6.3288 8.19 6.1482 8.1192 5.928 8.1192C5.7072 8.1192 5.5254 8.19 5.382 8.3322H5.3826Z" fill="#225999"/>
</svg>
