<svg width="30" height="30" viewBox="0 0 30 30" fill="none" xmlns="http://www.w3.org/2000/svg">
<rect x="2" y="1" width="14" height="14" rx="2" fill="#0662BA"/>
<rect x="18" y="18" width="10" height="10" rx="2" fill="#F8991D"/>
<path d="M3.33333 3.33333V10C3.33333 10.442 3.15774 10.8659 2.84518 11.1785C2.53262 11.4911 2.10869 11.6667 1.66667 11.6667C1.22464 11.6667 0.800716 11.4911 0.488155 11.1785C0.175595 10.8659 0 10.442 0 10V1.66667C0 1.22464 0.175595 0.800716 0.488155 0.488155C0.800716 0.175595 1.22464 0 1.66667 0H10C10.442 0 10.8659 0.175595 11.1785 0.488155C11.4911 0.800716 11.6667 1.22464 11.6667 1.66667C11.6667 2.10869 11.4911 2.53262 11.1785 2.84518C10.8659 3.15774 10.442 3.33333 10 3.33333H3.33333ZM26.6667 3.33333H20C19.558 3.33333 19.134 3.15774 18.8215 2.84518C18.5089 2.53262 18.3333 2.10869 18.3333 1.66667C18.3333 1.22464 18.5089 0.800716 18.8215 0.488155C19.134 0.175595 19.558 0 20 0H28.3333C28.7754 0 29.1993 0.175595 29.5118 0.488155C29.8244 0.800716 30 1.22464 30 1.66667V10C30 10.442 29.8244 10.8659 29.5118 11.1785C29.1993 11.4911 28.7754 11.6667 28.3333 11.6667C27.8913 11.6667 27.4674 11.4911 27.1548 11.1785C26.8423 10.8659 26.6667 10.442 26.6667 10V3.33333ZM3.33333 26.6667H10C10.442 26.6667 10.8659 26.8423 11.1785 27.1548C11.4911 27.4674 11.6667 27.8913 11.6667 28.3333C11.6667 28.7754 11.4911 29.1993 11.1785 29.5118C10.8659 29.8244 10.442 30 10 30H1.66667C1.22464 30 0.800716 29.8244 0.488155 29.5118C0.175595 29.1993 0 28.7754 0 28.3333V20C0 19.558 0.175595 19.134 0.488155 18.8215C0.800716 18.5089 1.22464 18.3333 1.66667 18.3333C2.10869 18.3333 2.53262 18.5089 2.84518 18.8215C3.15774 19.134 3.33333 19.558 3.33333 20V26.6667ZM26.6667 26.6667V20C26.6667 19.558 26.8423 19.134 27.1548 18.8215C27.4674 18.5089 27.8913 18.3333 28.3333 18.3333C28.7754 18.3333 29.1993 18.5089 29.5118 18.8215C29.8244 19.134 30 19.558 30 20V28.3333C30 28.7754 29.8244 29.1993 29.5118 29.5118C29.1993 29.8244 28.7754 30 28.3333 30H20C19.558 30 19.134 29.8244 18.8215 29.5118C18.5089 29.1993 18.3333 28.7754 18.3333 28.3333C18.3333 27.8913 18.5089 27.4674 18.8215 27.1548C19.134 26.8423 19.558 26.6667 20 26.6667H26.6667ZM5.48833 7.845C5.18474 7.53066 5.01675 7.10966 5.02054 6.67266C5.02434 6.23567 5.19962 5.81765 5.50864 5.50864C5.81765 5.19962 6.23567 5.02434 6.67266 5.02054C7.10966 5.01675 7.53066 5.18474 7.845 5.48833L11.1783 8.82167C11.3375 8.97541 11.4645 9.15932 11.5518 9.36266C11.6392 9.566 11.6852 9.7847 11.6871 10.006C11.689 10.2273 11.6468 10.4468 11.563 10.6516C11.4792 10.8564 11.3555 11.0425 11.199 11.199C11.0425 11.3555 10.8564 11.4792 10.6516 11.563C10.4468 11.6468 10.2273 11.689 10.006 11.6871C9.7847 11.6852 9.566 11.6392 9.36266 11.5518C9.15932 11.4645 8.97541 11.3375 8.82167 11.1783L5.48833 7.845ZM18.8217 21.1783C18.5181 20.864 18.3501 20.443 18.3539 20.006C18.3577 19.569 18.533 19.151 18.842 18.842C19.151 18.533 19.569 18.3577 20.006 18.3539C20.443 18.3501 20.864 18.5181 21.1783 18.8217L24.5117 22.155C24.8153 22.4693 24.9833 22.8903 24.9795 23.3273C24.9757 23.7643 24.8004 24.1824 24.4914 24.4914C24.1824 24.8004 23.7643 24.9757 23.3273 24.9795C22.8903 24.9833 22.4693 24.8153 22.155 24.5117L18.8217 21.1783ZM21.1783 11.1783C21.0246 11.3375 20.8407 11.4645 20.6373 11.5518C20.434 11.6392 20.2153 11.6852 19.994 11.6871C19.7727 11.689 19.5532 11.6468 19.3484 11.563C19.1436 11.4792 18.9575 11.3555 18.801 11.199C18.6445 11.0425 18.5208 10.8564 18.437 10.6516C18.3532 10.4468 18.311 10.2273 18.3129 10.006C18.3148 9.7847 18.3608 9.566 18.4482 9.36266C18.5355 9.15932 18.6625 8.97541 18.8217 8.82167L22.155 5.48833C22.4693 5.18474 22.8903 5.01675 23.3273 5.02054C23.7643 5.02434 24.1824 5.19962 24.4914 5.50864C24.8004 5.81765 24.9757 6.23567 24.9795 6.67266C24.9833 7.10966 24.8153 7.53066 24.5117 7.845L21.1783 11.1783ZM7.845 24.5117C7.69125 24.6709 7.50735 24.7978 7.30401 24.8852C7.10067 24.9725 6.88197 25.0185 6.66067 25.0204C6.43937 25.0223 6.2199 24.9802 6.01508 24.8964C5.81025 24.8126 5.62416 24.6888 5.46767 24.5323C5.31119 24.3758 5.18743 24.1897 5.10363 23.9849C5.01983 23.7801 4.97766 23.5606 4.97958 23.3393C4.98151 23.118 5.02748 22.8993 5.11483 22.696C5.20218 22.4927 5.32915 22.3087 5.48833 22.155L8.82167 18.8217C8.97541 18.6625 9.15932 18.5355 9.36266 18.4482C9.566 18.3608 9.7847 18.3148 10.006 18.3129C10.2273 18.311 10.4468 18.3532 10.6516 18.437C10.8564 18.5208 11.0425 18.6445 11.199 18.801C11.3555 18.9575 11.4792 19.1436 11.563 19.3484C11.6468 19.5532 11.689 19.7727 11.6871 19.994C11.6852 20.2153 11.6392 20.434 11.5518 20.6373C11.4645 20.8407 11.3375 21.0246 11.1783 21.1783L7.845 24.5117Z" fill="black"/>
</svg>
