<svg width="18" height="10" viewBox="0 0 18 10" fill="none" xmlns="http://www.w3.org/2000/svg">
<path d="M2.70207e-09 4.99785C0.00151059 4.81251 0.0784183 4.63498 0.2145 4.5027L0.219 4.49411L4.719 0.200861C4.86045 0.0705194 5.0499 -0.00160313 5.24655 2.67029e-05C5.4432 0.00165749 5.63131 0.076911 5.77036 0.209578C5.90942 0.342245 5.9883 0.521712 5.99001 0.709325C5.99171 0.896937 5.91612 1.07768 5.7795 1.21264L2.5605 4.28517L17.25 4.28517C17.4489 4.28517 17.6397 4.36056 17.7803 4.49475C17.921 4.62894 18 4.81094 18 5.00072C18 5.19049 17.921 5.37249 17.7803 5.50668C17.6397 5.64087 17.4489 5.71626 17.25 5.71626L2.5605 5.71626L5.7795 8.78736C5.91612 8.92232 5.99171 9.10306 5.99001 9.29068C5.9883 9.47829 5.90942 9.65776 5.77036 9.79042C5.63131 9.92309 5.4432 9.99834 5.24655 9.99997C5.0499 10.0016 4.86045 9.92948 4.719 9.79914L0.219 5.50589L0.2145 5.49873C0.147732 5.43419 0.0947503 5.35788 0.0585001 5.27405C0.0198902 5.18763 -8.46608e-06 5.09466 2.70207e-09 5.00072L2.70207e-09 4.99785Z" fill="#F8991D"/>
</svg>
