<svg width="15" height="13" viewBox="0 0 15 13" fill="none" xmlns="http://www.w3.org/2000/svg">
<path fill-rule="evenodd" clip-rule="evenodd" d="M14.6429 11.0714C14.7643 11.2814 15 11.5254 15 11.7857V12.5C15 12.6971 14.84 12.8571 14.6429 12.8571H0.357143C0.16 12.8571 0 12.6971 0 12.5C0 12.5 0 12.1654 0 11.7857C0 11.5254 0.235714 11.2814 0.357143 11.0714H14.6429ZM14.2857 10.3571H0.714286L1.42857 8.57143H13.5714L14.2857 10.3571ZM1.42857 7.85714V6.42857C1.61714 3.55714 4.07857 1.24857 7.14286 1.08107V0.714286H6.78571C6.58857 0.714286 6.42857 0.554286 6.42857 0.357143C6.42857 0.16 6.58857 0 6.78571 0H8.21429C8.41143 0 8.57143 0.16 8.57143 0.357143C8.57143 0.554286 8.41143 0.714286 8.21429 0.714286H7.85714V1.08107C10.9218 1.24857 13.3832 3.5575 13.5714 6.42857V7.85714H1.42857Z" fill="black"/>
</svg>
