<svg width="15" height="15" viewBox="0 0 15 15" fill="none" xmlns="http://www.w3.org/2000/svg">
<path d="M5.09766 6.83036L7.5 5.08929L9.90234 6.83036L8.98995 9.64286H6.01841L5.09766 6.83036ZM7.5 0C8.51562 0 9.48661 0.198103 10.4129 0.594308C11.3393 0.990513 12.1373 1.52344 12.8069 2.19308C13.4766 2.86272 14.0095 3.66071 14.4057 4.58705C14.8019 5.51339 15 6.48438 15 7.5C15 8.51562 14.8019 9.48661 14.4057 10.4129C14.0095 11.3393 13.4766 12.1373 12.8069 12.8069C12.1373 13.4766 11.3393 14.0095 10.4129 14.4057C9.48661 14.8019 8.51562 15 7.5 15C6.48438 15 5.51339 14.8019 4.58705 14.4057C3.66071 14.0095 2.86272 13.4766 2.19308 12.8069C1.52344 12.1373 0.990513 11.3393 0.594308 10.4129C0.198103 9.48661 0 8.51562 0 7.5C0 6.48438 0.198103 5.51339 0.594308 4.58705C0.990513 3.66071 1.52344 2.86272 2.19308 2.19308C2.86272 1.52344 3.66071 0.990513 4.58705 0.594308C5.51339 0.198103 6.48438 0 7.5 0ZM12.6814 11.3002C13.5128 10.1674 13.9286 8.90067 13.9286 7.5V7.47489L13.0748 8.21987L11.0658 6.34487L11.5932 3.64118L12.7148 3.74163C11.8778 2.59208 10.7924 1.80525 9.4587 1.38114L9.90234 2.41908L7.5 3.75L5.09766 2.41908L5.54129 1.38114C4.20759 1.80525 3.12221 2.59208 2.28516 3.74163L3.41518 3.64118L3.93415 6.34487L1.92522 8.21987L1.07143 7.47489V7.5C1.07143 8.90067 1.48717 10.1674 2.31864 11.3002L2.56975 10.1953L5.29855 10.5301L6.46205 13.0246L5.49107 13.6021C6.14397 13.8198 6.81362 13.9286 7.5 13.9286C8.18638 13.9286 8.85603 13.8198 9.50893 13.6021L8.53795 13.0246L9.70145 10.5301L12.4302 10.1953L12.6814 11.3002Z" fill="black"/>
</svg>
