<svg width="24" height="24" viewBox="0 0 24 24" fill="none" xmlns="http://www.w3.org/2000/svg">
<rect width="24" height="24" rx="12" fill="#0662BA"/>
<path d="M13.1118 6H10.8899C10.5844 6 10.3345 6.25714 10.3345 6.57143C10.3345 6.88571 10.5844 7.14286 10.8899 7.14286H13.1118C13.4173 7.14286 13.6672 6.88571 13.6672 6.57143C13.6672 6.25714 13.4173 6 13.1118 6ZM12.0008 13.4286C12.3063 13.4286 12.5563 13.1714 12.5563 12.8571V10.5714C12.5563 10.2571 12.3063 10 12.0008 10C11.6953 10 11.4454 10.2571 11.4454 10.5714V12.8571C11.4454 13.1714 11.6953 13.4286 12.0008 13.4286ZM15.9057 9.65143L16.3223 9.22286C16.5334 9.00571 16.539 8.64571 16.3223 8.42286L16.3168 8.41714C16.1002 8.19429 15.7558 8.2 15.5391 8.41714L15.1225 8.84571C14.2616 8.13714 13.1784 7.71429 12.0008 7.71429C9.33462 7.71429 7.06834 9.97714 7.00168 12.72C6.92947 15.6229 9.1902 18 12.0008 18C14.767 18 17 15.6971 17 12.8571C17 11.6457 16.589 10.5314 15.9057 9.65143ZM12.0008 16.8571C9.8512 16.8571 8.11261 15.0686 8.11261 12.8571C8.11261 10.6457 9.8512 8.85714 12.0008 8.85714C14.1505 8.85714 15.8891 10.6457 15.8891 12.8571C15.8891 15.0686 14.1505 16.8571 12.0008 16.8571Z" fill="white"/>
</svg>
