<svg width="42" height="42" viewBox="0 0 42 42" fill="none" xmlns="http://www.w3.org/2000/svg">
<path d="M40.4949 34.4876H28.4916V19.373C29.2217 19.6089 29.8852 20.015 30.4273 20.5576C30.5652 20.6928 30.7284 20.7998 30.9074 20.8725C30.9728 20.9062 31.0442 20.9265 31.1175 20.9325C31.2378 20.9754 31.365 20.9957 31.4926 20.9924C31.6043 20.9933 31.7154 20.9781 31.8227 20.9475C31.895 20.9365 31.9656 20.9164 32.0328 20.8875C32.1398 20.8528 32.241 20.8023 32.3329 20.7375L32.8731 20.3777C33.9089 19.6779 35.0926 19.2271 36.3317 19.0607C37.5708 18.8942 38.8317 19.0165 40.0156 19.418C40.2686 19.5008 40.539 19.5155 40.7994 19.4605C41.0599 19.4056 41.3012 19.2829 41.4991 19.105C41.6969 18.927 41.8443 18.7001 41.9263 18.447C42.0084 18.1939 42.0222 17.9237 41.9663 17.6636L41.2311 14.4248C40.5855 11.4292 39.0033 8.71642 36.7132 6.67863C34.4231 4.64083 31.5438 3.38367 28.4916 3.08889V1.49946C28.4916 1.10178 28.3335 0.720385 28.0521 0.439182C27.7707 0.157978 27.389 0 26.9911 0C26.5931 0 26.2114 0.157978 25.93 0.439182C25.6486 0.720385 25.4905 1.10178 25.4905 1.49946V3.08889C22.4383 3.38371 19.559 4.6409 17.2689 6.67868C14.9789 8.71646 13.3966 11.4292 12.751 14.4248L12.0158 17.6636C11.9599 17.9237 11.9736 18.194 12.0557 18.4471C12.1377 18.7001 12.2851 18.9271 12.4829 19.1051C12.6808 19.283 12.9222 19.4057 13.1827 19.4606C13.4431 19.5156 13.7135 19.5009 13.9665 19.418C15.1504 19.0165 16.4113 18.8942 17.6504 19.0607C18.8895 19.2271 20.0732 19.6779 21.109 20.3777L21.6492 20.7375C21.7412 20.8022 21.8423 20.8528 21.9493 20.8875C22.0219 20.9192 22.0972 20.9443 22.1744 20.9625C22.2786 20.9799 22.3839 20.9899 22.4895 20.9924C22.6171 20.9957 22.7443 20.9754 22.8646 20.9325C22.9379 20.9265 23.0093 20.9062 23.0747 20.8725C23.2537 20.7998 23.4169 20.6928 23.5548 20.5576C24.097 20.015 24.7604 19.6089 25.4905 19.373V34.4876H21.4016L18.3128 32.1364C16.4814 30.7474 14.2465 29.9935 11.9474 29.9892H5.10436L2.54296 27.4296C2.25996 27.1565 1.88092 27.0054 1.48749 27.0088C1.09405 27.0122 0.717704 27.1699 0.439494 27.4479C0.161284 27.7259 0.00347555 28.102 5.67239e-05 28.4951C-0.00336211 28.8883 0.147883 29.2671 0.421216 29.5499L3.42227 32.5488L3.42317 32.5497L7.05445 36.1784L4.73568 39.6541C4.62361 39.8179 4.54518 40.0023 4.50493 40.1966C4.46468 40.3908 4.46341 40.5912 4.5012 40.7859C4.53899 40.9807 4.61509 41.1661 4.72508 41.3312C4.83507 41.4964 4.97677 41.6381 5.14197 41.7482C5.30717 41.8582 5.49258 41.9344 5.68746 41.9724C5.88234 42.0103 6.08282 42.0092 6.27727 41.9691C6.47173 41.9291 6.65629 41.8508 6.82027 41.739C6.98425 41.6271 7.12439 41.4839 7.23256 41.3175L9.78751 37.4865H32.1895L34.745 41.317C34.9679 41.6428 35.3104 41.8676 35.698 41.9427C36.0857 42.0178 36.4874 41.9372 36.816 41.7183C37.1445 41.4994 37.3735 41.1599 37.4533 40.7734C37.533 40.3869 37.4571 39.9846 37.2419 39.6537L35.7961 37.4865H40.4949C40.8929 37.4865 41.2745 37.3285 41.5559 37.0473C41.8373 36.7661 41.9954 36.3847 41.9954 35.9871C41.9954 35.5894 41.8373 35.208 41.5559 34.9268C41.2745 34.6456 40.8929 34.4876 40.4949 34.4876ZM38.305 15.0696L38.5301 16.0442C36.5969 15.8498 34.6464 16.1652 32.8731 16.9589C32.5413 13.2486 31.4915 9.63804 29.782 6.32772C31.8794 6.84095 33.7904 7.93252 35.2972 9.47807C36.8041 11.0236 37.8463 12.961 38.305 15.0696ZM21.109 16.9589C19.3357 16.1652 17.3853 15.8498 15.452 16.0442L15.6771 15.0696C16.1358 12.961 17.178 11.0236 18.6849 9.47807C20.1917 7.93252 22.1027 6.84095 24.2001 6.32772C22.4906 9.63804 21.4408 13.2486 21.109 16.9589ZM11.9474 32.9881C13.5674 32.9928 15.1428 33.5186 16.4405 34.4876H9.60579L8.10527 32.9881H11.9474Z" fill="#225999"/>
</svg>
