<svg width="46" height="37" viewBox="0 0 46 37" fill="none" xmlns="http://www.w3.org/2000/svg">
<path d="M46 13.8985C46 11.9348 45.3243 10.2362 44.2267 8.77534C44.1137 8.54019 43.8977 8.40261 43.6992 8.20999C43.2933 7.76456 42.8421 7.36218 42.353 7.00926C31.1757 -2.34392 14.8117 -2.33392 3.637 7.02427C3.15223 7.37949 1.77329 8.8704 1.77329 8.8704C0.628531 10.3755 0.00615142 12.2104 0 14.0986C0 16.1398 0.90925 18.4962 1.90641 19.4894L16.4117 33.9882C17.229 34.9304 18.2399 35.6869 19.3761 36.2065C20.5123 36.7261 21.7473 36.9967 22.9975 37C25.4992 37 27.2901 36.5822 29.3421 34.4985C29.3522 34.4985 43.32 20.3749 43.32 20.3749C45.0933 18.6163 46 16.1248 46 13.8985ZM32.7682 23.8195C32.4184 24.1681 32.0029 24.4443 31.5455 24.6324C31.0882 24.8204 30.598 24.9165 30.1032 24.9152C29.1362 24.9152 28.1742 24.5499 27.4382 23.8195C26.2603 22.6469 24.663 21.9882 22.9975 21.9882C21.332 21.9882 19.7347 22.6469 18.5567 23.8195C17.8406 24.4782 16.8963 24.8354 15.9217 24.816C14.947 24.7967 14.0178 24.4023 13.3286 23.7157C12.6395 23.029 12.2439 22.1033 12.225 21.1326C12.206 20.1619 12.565 19.2216 13.2268 18.5088C15.8202 15.9328 19.3335 14.4863 22.9962 14.4863C26.659 14.4863 30.1722 15.9328 32.7656 18.5088C33.1163 18.8571 33.3945 19.2709 33.5845 19.7264C33.7744 20.182 33.8723 20.6703 33.8725 21.1636C33.8727 21.6569 33.7753 22.1453 33.5858 22.601C33.3963 23.0568 33.1185 23.4708 32.7682 23.8195ZM39.8739 16.7452C39.1379 17.4781 38.1734 17.8409 37.2089 17.8409C36.2444 17.8409 35.2774 17.4756 34.5414 16.7452C31.4771 13.7011 27.3256 11.9915 22.9975 11.9915C18.6694 11.9915 14.5179 13.7011 11.4535 16.7452C10.7456 17.447 9.78742 17.8409 8.78858 17.8409C7.78974 17.8409 6.83156 17.447 6.12362 16.7452C5.41761 16.0403 5.02112 15.0854 5.02112 14.0898C5.02112 13.0942 5.41761 12.1393 6.12362 11.4345C15.4271 2.17633 30.5603 2.17633 39.8688 11.4345C41.3432 12.9053 41.3432 15.2793 39.8739 16.7452Z" fill="#225999"/>
</svg>
